#N canvas 89 38 1533 1051 12;
#X obj 47 74 tgl 15 0 empty empty empty 17 7 0 10 #fcfcfc #000000 #000000
0 1;
#X obj 90 148 bng 15 250 50 0 empty empty empty 17 7 0 10 #fcfcfc #000000
#000000;
#X obj 90 173 int 1;
#X obj 148 175 + 1;
#X floatatom 90 205 5 0 0 0 - - - 0;
#X obj 90 262 + 1;
#X floatatom 90 289 5 0 0 0 - - - 0;
#X msg 90 71 tempo \$1 permin;
#X floatatom 90 33 5 0 0 0 - - - 0;
#X floatatom 244 101 5 -1 1 0 - - - 0;
#X obj 90 116 metro 1 120 permin;
#X obj 116 350 bng 15 250 50 0 empty empty empty 17 7 0 10 #fcfcfc
#000000 #000000;
#X obj 158 347 bng 15 250 50 0 empty empty empty 17 7 0 10 #fcfcfc
#000000 #000000;
#X obj 201 350 bng 15 250 50 0 empty empty empty 17 7 0 10 #fcfcfc
#000000 #000000;
#X obj 234 350 bng 15 250 50 0 empty empty empty 17 7 0 10 #fcfcfc
#000000 #000000;
#X obj 278 351 bng 15 250 50 0 empty empty empty 17 7 0 10 #fcfcfc
#000000 #000000;
#X obj 319 350 bng 15 250 50 0 empty empty empty 17 7 0 10 #fcfcfc
#000000 #000000;
#X obj 361 349 bng 15 250 50 0 empty empty empty 17 7 0 10 #fcfcfc
#000000 #000000;
#X obj 402 350 bng 15 250 50 0 empty empty empty 17 7 0 10 #fcfcfc
#000000 #000000;
#X obj 717 652 osc~;
#X obj 723 882 output~;
#X obj 719 682 expr~ if($v1 >0 \, 1 \, -1);
#X text 901 684 converts sin to square wave (NES);
#X obj 446 352 bng 15 250 50 0 empty empty empty 17 7 0 10 #fcfcfc
#000000 #000000;
#X obj 489 353 bng 15 250 50 0 empty empty empty 17 7 0 10 #fcfcfc
#000000 #000000;
#X obj 534 353 bng 15 250 50 0 empty empty empty 17 7 0 10 #fcfcfc
#000000 #000000;
#X obj 576 349 bng 15 250 50 0 empty empty empty 17 7 0 10 #fcfcfc
#000000 #000000;
#X obj 622 352 bng 15 250 50 0 empty empty empty 17 7 0 10 #fcfcfc
#000000 #000000;
#X obj 660 350 bng 15 250 50 0 empty empty empty 17 7 0 10 #fcfcfc
#000000 #000000;
#X obj 704 350 bng 15 250 50 0 empty empty empty 17 7 0 10 #fcfcfc
#000000 #000000;
#X obj 744 351 bng 15 250 50 0 empty empty empty 17 7 0 10 #fcfcfc
#000000 #000000;
#X obj 777 352 bng 15 250 50 0 empty empty empty 17 7 0 10 #fcfcfc
#000000 #000000;
#X obj 819 351 bng 15 250 50 0 empty empty empty 17 7 0 10 #fcfcfc
#000000 #000000;
#X obj 861 352 bng 15 250 50 0 empty empty empty 17 7 0 10 #fcfcfc
#000000 #000000;
#X obj 905 351 bng 15 250 50 0 empty empty empty 17 7 0 10 #fcfcfc
#000000 #000000;
#X obj 943 351 bng 15 250 50 0 empty empty empty 17 7 0 10 #fcfcfc
#000000 #000000;
#X obj 990 352 bng 15 250 50 0 empty empty empty 17 7 0 10 #fcfcfc
#000000 #000000;
#X obj 1029 352 bng 15 250 50 0 empty empty empty 17 7 0 10 #fcfcfc
#000000 #000000;
#X obj 1076 352 bng 15 250 50 0 empty empty empty 17 7 0 10 #fcfcfc
#000000 #000000;
#X obj 1117 353 bng 15 250 50 0 empty empty empty 17 7 0 10 #fcfcfc
#000000 #000000;
#X obj 1156 350 bng 15 250 50 0 empty empty empty 17 7 0 10 #fcfcfc
#000000 #000000;
#X obj 1194 350 bng 15 250 50 0 empty empty empty 17 7 0 10 #fcfcfc
#000000 #000000;
#X obj 1235 351 bng 15 250 50 0 empty empty empty 17 7 0 10 #fcfcfc
#000000 #000000;
#X obj 1278 349 bng 15 250 50 0 empty empty empty 17 7 0 10 #fcfcfc
#000000 #000000;
#X obj 1318 353 bng 15 250 50 0 empty empty empty 17 7 0 10 #fcfcfc
#000000 #000000;
#X obj 1355 353 bng 15 250 50 0 empty empty empty 17 7 0 10 #fcfcfc
#000000 #000000;
#X obj 1406 354 bng 15 250 50 0 empty empty empty 17 7 0 10 #fcfcfc
#000000 #000000;
#X obj 91 316 select 0 1 2 3 4 5 6 7 8 9 10 11 12 13 14 15 16 17 18
19 20 21 22 23 24 25 26 27 28 29 30 31 32, f 193;
#X obj 713 532 mtof;
#X obj 90 232 % 32;
#X floatatom 44 126 5 0 0 0 - - - 0;
#X obj 576 711 vline~;
#X obj 724 759 *~;
#X text 597 272 select object: for cycling through 32 steps of midi
information;
#X text 291 116 metro to provide bangs to increase int count;
#X text 348 678 envelope \, gets banged by metro;
#X text 158 233 modulo so it repeats after 32 "beats";
#X msg 115 391 36;
#X msg 156 391 38;
#X msg 200 390 40;
#X msg 241 390 43;
#X msg 280 390 48;
#X msg 324 389 50;
#X msg 365 389 52;
#X msg 406 389 55;
#X msg 447 392 60;
#X msg 488 392 62;
#X msg 532 391 64;
#X msg 573 391 67;
#X msg 618 391 72;
#X msg 659 391 74;
#X msg 703 390 76;
#X msg 744 390 79;
#X msg 783 390 84;
#X msg 824 390 79;
#X msg 868 389 76;
#X msg 909 389 74;
#X msg 950 392 72;
#X msg 991 392 67;
#X msg 1035 391 64;
#X msg 1076 391 62;
#X msg 1123 391 60;
#X msg 1164 391 55;
#X msg 1208 390 52;
#X msg 1249 390 50;
#X msg 1290 393 48;
#X msg 1331 393 43;
#X msg 1375 392 40;
#X msg 1416 392 38;
#X obj 102 757 hsl 128 15 0 1000 0 0 empty empty Delay\ time -2 -8
0 10 #c6feff #000000 #000000 0 1;
#X floatatom 100 792 5 0 0 0 - - - 0;
#X obj 101 905 output~;
#X obj 99 825 delread~ audio-buffer 0;
#X obj 462 811 delwrite~ audio-buffer 5000;
#X obj 392 760 receive~ feedback-sig;
#X obj 229 936 send~ feedback-sig;
#X obj 229 899 *~;
#X msg 576 679 1 5 \, 0 100 50;
#X obj 270 865 hsl 128 15 0 1 0 0 empty empty empty -2 -8 0 10 #fcfcfc
#000000 #000000 0 1;
#X text 566 758 audio sent to delay;
#X text 157 790 how much signal is delayed;
#X text 409 863 feedback ammount;
#X connect 0 0 10 0;
#X connect 0 0 50 0;
#X connect 1 0 2 0;
#X connect 1 0 97 0;
#X connect 2 0 3 0;
#X connect 2 0 4 0;
#X connect 3 0 2 1;
#X connect 4 0 49 0;
#X connect 5 0 6 0;
#X connect 6 0 47 0;
#X connect 7 0 10 0;
#X connect 8 0 7 0;
#X connect 9 0 10 1;
#X connect 10 0 1 0;
#X connect 11 0 57 0;
#X connect 12 0 58 0;
#X connect 13 0 59 0;
#X connect 14 0 60 0;
#X connect 15 0 61 0;
#X connect 16 0 62 0;
#X connect 17 0 63 0;
#X connect 18 0 64 0;
#X connect 19 0 21 0;
#X connect 21 0 52 1;
#X connect 23 0 65 0;
#X connect 24 0 66 0;
#X connect 25 0 67 0;
#X connect 26 0 68 0;
#X connect 27 0 69 0;
#X connect 28 0 70 0;
#X connect 29 0 71 0;
#X connect 30 0 72 0;
#X connect 31 0 73 0;
#X connect 32 0 74 0;
#X connect 33 0 75 0;
#X connect 34 0 76 0;
#X connect 35 0 77 0;
#X connect 36 0 78 0;
#X connect 37 0 79 0;
#X connect 38 0 80 0;
#X connect 39 0 81 0;
#X connect 40 0 82 0;
#X connect 41 0 83 0;
#X connect 42 0 84 0;
#X connect 43 0 85 0;
#X connect 44 0 86 0;
#X connect 45 0 87 0;
#X connect 46 0 88 0;
#X connect 47 1 11 0;
#X connect 47 2 12 0;
#X connect 47 3 13 0;
#X connect 47 4 14 0;
#X connect 47 5 15 0;
#X connect 47 6 16 0;
#X connect 47 7 17 0;
#X connect 47 8 18 0;
#X connect 47 9 23 0;
#X connect 47 10 24 0;
#X connect 47 11 25 0;
#X connect 47 12 26 0;
#X connect 47 13 27 0;
#X connect 47 14 28 0;
#X connect 47 15 29 0;
#X connect 47 16 30 0;
#X connect 47 17 31 0;
#X connect 47 18 32 0;
#X connect 47 19 33 0;
#X connect 47 20 34 0;
#X connect 47 21 35 0;
#X connect 47 22 36 0;
#X connect 47 23 37 0;
#X connect 47 24 38 0;
#X connect 47 25 39 0;
#X connect 47 26 40 0;
#X connect 47 27 41 0;
#X connect 47 28 42 0;
#X connect 47 29 43 0;
#X connect 47 30 44 0;
#X connect 47 31 45 0;
#X connect 47 32 46 0;
#X connect 48 0 19 0;
#X connect 49 0 5 0;
#X connect 50 0 2 1;
#X connect 51 0 52 0;
#X connect 52 0 20 0;
#X connect 52 0 20 1;
#X connect 52 0 93 0;
#X connect 57 0 48 0;
#X connect 58 0 48 0;
#X connect 59 0 48 0;
#X connect 60 0 48 0;
#X connect 61 0 48 0;
#X connect 62 0 48 0;
#X connect 63 0 48 0;
#X connect 64 0 48 0;
#X connect 65 0 48 0;
#X connect 66 0 48 0;
#X connect 67 0 48 0;
#X connect 68 0 48 0;
#X connect 69 0 48 0;
#X connect 70 0 48 0;
#X connect 71 0 48 0;
#X connect 72 0 48 0;
#X connect 73 0 48 0;
#X connect 74 0 48 0;
#X connect 75 0 48 0;
#X connect 76 0 48 0;
#X connect 77 0 48 0;
#X connect 78 0 48 0;
#X connect 79 0 48 0;
#X connect 80 0 48 0;
#X connect 81 0 48 0;
#X connect 82 0 48 0;
#X connect 83 0 48 0;
#X connect 84 0 48 0;
#X connect 85 0 48 0;
#X connect 86 0 48 0;
#X connect 87 0 48 0;
#X connect 88 0 48 0;
#X connect 89 0 90 0;
#X connect 90 0 92 0;
#X connect 92 0 96 0;
#X connect 92 0 91 0;
#X connect 92 0 91 1;
#X connect 94 0 93 0;
#X connect 96 0 95 0;
#X connect 97 0 51 0;
#X connect 98 0 96 1;
