#N canvas 80 38 1514 1051 12;
#X obj 47 74 tgl 15 0 empty empty empty 17 7 0 10 #fcfcfc #000000 #000000
0 1;
#X obj 90 148 bng 15 250 50 0 empty empty empty 17 7 0 10 #fcfcfc #000000
#000000;
#X obj 90 173 int 1;
#X obj 148 175 + 1;
#X floatatom 90 205 5 0 0 0 - - - 0;
#X obj 90 262 + 1;
#X floatatom 90 289 5 0 0 0 - - - 0;
#X msg 90 71 tempo \$1 permin;
#X floatatom 90 33 5 0 0 0 - - - 0;
#X floatatom 244 101 5 -1 1 0 - - - 0;
#X obj 90 116 metro 1 120 permin;
#X obj 116 350 bng 15 250 50 0 empty empty empty 17 7 0 10 #fcfcfc
#000000 #000000;
#X obj 158 347 bng 15 250 50 0 empty empty empty 17 7 0 10 #fcfcfc
#000000 #000000;
#X obj 201 350 bng 15 250 50 0 empty empty empty 17 7 0 10 #fcfcfc
#000000 #000000;
#X obj 234 350 bng 15 250 50 0 empty empty empty 17 7 0 10 #fcfcfc
#000000 #000000;
#X obj 278 351 bng 15 250 50 0 empty empty empty 17 7 0 10 #fcfcfc
#000000 #000000;
#X obj 319 350 bng 15 250 50 0 empty empty empty 17 7 0 10 #fcfcfc
#000000 #000000;
#X obj 361 349 bng 15 250 50 0 empty empty empty 17 7 0 10 #fcfcfc
#000000 #000000;
#X obj 402 350 bng 15 250 50 0 empty empty empty 17 7 0 10 #fcfcfc
#000000 #000000;
#X obj 717 652 osc~;
#X obj 721 814 output~;
#X obj 719 682 expr~ if($v1 >0 \, 1 \, -1);
#X text 901 684 converts sin to square wave (NES);
#X obj 446 352 bng 15 250 50 0 empty empty empty 17 7 0 10 #fcfcfc
#000000 #000000;
#X obj 489 353 bng 15 250 50 0 empty empty empty 17 7 0 10 #fcfcfc
#000000 #000000;
#X obj 534 353 bng 15 250 50 0 empty empty empty 17 7 0 10 #fcfcfc
#000000 #000000;
#X obj 576 349 bng 15 250 50 0 empty empty empty 17 7 0 10 #fcfcfc
#000000 #000000;
#X obj 622 352 bng 15 250 50 0 empty empty empty 17 7 0 10 #fcfcfc
#000000 #000000;
#X obj 660 350 bng 15 250 50 0 empty empty empty 17 7 0 10 #fcfcfc
#000000 #000000;
#X obj 704 350 bng 15 250 50 0 empty empty empty 17 7 0 10 #fcfcfc
#000000 #000000;
#X obj 744 351 bng 15 250 50 0 empty empty empty 17 7 0 10 #fcfcfc
#000000 #000000;
#X obj 777 352 bng 15 250 50 0 empty empty empty 17 7 0 10 #fcfcfc
#000000 #000000;
#X obj 819 351 bng 15 250 50 0 empty empty empty 17 7 0 10 #fcfcfc
#000000 #000000;
#X obj 861 352 bng 15 250 50 0 empty empty empty 17 7 0 10 #fcfcfc
#000000 #000000;
#X obj 905 351 bng 15 250 50 0 empty empty empty 17 7 0 10 #fcfcfc
#000000 #000000;
#X obj 943 351 bng 15 250 50 0 empty empty empty 17 7 0 10 #fcfcfc
#000000 #000000;
#X obj 990 352 bng 15 250 50 0 empty empty empty 17 7 0 10 #fcfcfc
#000000 #000000;
#X obj 1029 352 bng 15 250 50 0 empty empty empty 17 7 0 10 #fcfcfc
#000000 #000000;
#X obj 1076 352 bng 15 250 50 0 empty empty empty 17 7 0 10 #fcfcfc
#000000 #000000;
#X obj 1117 353 bng 15 250 50 0 empty empty empty 17 7 0 10 #fcfcfc
#000000 #000000;
#X obj 1156 350 bng 15 250 50 0 empty empty empty 17 7 0 10 #fcfcfc
#000000 #000000;
#X obj 1194 350 bng 15 250 50 0 empty empty empty 17 7 0 10 #fcfcfc
#000000 #000000;
#X obj 1235 351 bng 15 250 50 0 empty empty empty 17 7 0 10 #fcfcfc
#000000 #000000;
#X obj 1278 349 bng 15 250 50 0 empty empty empty 17 7 0 10 #fcfcfc
#000000 #000000;
#X obj 1318 353 bng 15 250 50 0 empty empty empty 17 7 0 10 #fcfcfc
#000000 #000000;
#X obj 1355 353 bng 15 250 50 0 empty empty empty 17 7 0 10 #fcfcfc
#000000 #000000;
#X obj 1406 354 bng 15 250 50 0 empty empty empty 17 7 0 10 #fcfcfc
#000000 #000000;
#X floatatom 107 386 5 0 0 0 - - - 0;
#X floatatom 148 386 5 0 0 0 - - - 0;
#X floatatom 190 386 5 0 0 0 - - - 0;
#X floatatom 231 386 5 0 0 0 - - - 0;
#X floatatom 275 386 5 0 0 0 - - - 0;
#X floatatom 316 386 5 0 0 0 - - - 0;
#X floatatom 358 386 5 0 0 0 - - - 0;
#X floatatom 399 386 5 0 0 0 - - - 0;
#X floatatom 444 385 5 0 0 0 - - - 0;
#X floatatom 485 385 5 0 0 0 - - - 0;
#X floatatom 527 385 5 0 0 0 - - - 0;
#X floatatom 568 385 5 0 0 0 - - - 0;
#X floatatom 612 385 5 0 0 0 - - - 0;
#X floatatom 653 385 5 0 0 0 - - - 0;
#X floatatom 695 385 5 0 0 0 - - - 0;
#X floatatom 736 385 5 0 0 0 - - - 0;
#X floatatom 779 385 5 0 0 0 - - - 0;
#X floatatom 820 385 5 0 0 0 - - - 0;
#X floatatom 862 385 5 0 0 0 - - - 0;
#X floatatom 903 385 5 0 0 0 - - - 0;
#X floatatom 947 385 5 0 0 0 - - - 0;
#X floatatom 988 385 5 0 0 0 - - - 0;
#X floatatom 1030 385 5 0 0 0 - - - 0;
#X floatatom 1071 385 5 0 0 0 - - - 0;
#X floatatom 1116 384 5 0 0 0 - - - 0;
#X floatatom 1157 384 5 0 0 0 - - - 0;
#X floatatom 1199 384 5 0 0 0 - - - 0;
#X floatatom 1240 384 5 0 0 0 - - - 0;
#X floatatom 1284 384 5 0 0 0 - - - 0;
#X floatatom 1325 384 5 0 0 0 - - - 0;
#X floatatom 1367 384 5 0 0 0 - - - 0;
#X floatatom 1408 384 5 0 0 0 - - - 0;
#X obj 91 316 select 0 1 2 3 4 5 6 7 8 9 10 11 12 13 14 15 16 17 18
19 20 21 22 23 24 25 26 27 28 29 30 31 32, f 193;
#X obj 712 525 mtof;
#X obj 90 232 % 32;
#X floatatom 44 126 5 0 0 0 - - - 0;
#X obj 576 711 vline~;
#X obj 705 759 *~;
#X msg 573 682 1 5 \, 0 500 100;
#X text 597 272 select object: for cycling through 32 steps of midi
information;
#X text 291 116 metro to provide bangs to increase int count;
#X text 440 693 envelope \, gets banged by metro;
#X text 158 233 modulo so it repeats after 32 "beats";
#X connect 0 0 10 0;
#X connect 0 0 82 0;
#X connect 1 0 2 0;
#X connect 1 0 85 0;
#X connect 2 0 3 0;
#X connect 2 0 4 0;
#X connect 3 0 2 1;
#X connect 4 0 81 0;
#X connect 5 0 6 0;
#X connect 6 0 79 0;
#X connect 7 0 10 0;
#X connect 8 0 7 0;
#X connect 9 0 10 1;
#X connect 10 0 1 0;
#X connect 11 0 47 0;
#X connect 12 0 48 0;
#X connect 13 0 49 0;
#X connect 14 0 50 0;
#X connect 15 0 51 0;
#X connect 16 0 52 0;
#X connect 17 0 53 0;
#X connect 18 0 54 0;
#X connect 19 0 21 0;
#X connect 21 0 84 1;
#X connect 23 0 55 0;
#X connect 24 0 56 0;
#X connect 25 0 57 0;
#X connect 26 0 58 0;
#X connect 27 0 59 0;
#X connect 28 0 60 0;
#X connect 29 0 61 0;
#X connect 30 0 62 0;
#X connect 31 0 63 0;
#X connect 32 0 64 0;
#X connect 33 0 65 0;
#X connect 34 0 66 0;
#X connect 35 0 67 0;
#X connect 36 0 68 0;
#X connect 37 0 69 0;
#X connect 38 0 70 0;
#X connect 39 0 71 0;
#X connect 40 0 72 0;
#X connect 41 0 73 0;
#X connect 42 0 74 0;
#X connect 43 0 75 0;
#X connect 44 0 76 0;
#X connect 45 0 77 0;
#X connect 46 0 78 0;
#X connect 47 0 80 0;
#X connect 48 0 80 0;
#X connect 49 0 80 0;
#X connect 50 0 80 0;
#X connect 51 0 80 0;
#X connect 52 0 80 0;
#X connect 53 0 80 0;
#X connect 54 0 80 0;
#X connect 55 0 80 0;
#X connect 56 0 80 0;
#X connect 57 0 80 0;
#X connect 58 0 80 0;
#X connect 59 0 80 0;
#X connect 60 0 80 0;
#X connect 61 0 80 0;
#X connect 62 0 80 0;
#X connect 63 0 80 0;
#X connect 64 0 80 0;
#X connect 65 0 80 0;
#X connect 66 0 80 0;
#X connect 67 0 80 0;
#X connect 68 0 80 0;
#X connect 69 0 80 0;
#X connect 70 0 80 0;
#X connect 71 0 80 0;
#X connect 72 0 80 0;
#X connect 73 0 80 0;
#X connect 74 0 80 0;
#X connect 75 0 80 0;
#X connect 76 0 80 0;
#X connect 77 0 80 0;
#X connect 78 0 80 0;
#X connect 79 1 11 0;
#X connect 79 2 12 0;
#X connect 79 3 13 0;
#X connect 79 4 14 0;
#X connect 79 5 15 0;
#X connect 79 6 16 0;
#X connect 79 7 17 0;
#X connect 79 8 18 0;
#X connect 79 9 23 0;
#X connect 79 10 24 0;
#X connect 79 11 25 0;
#X connect 79 12 26 0;
#X connect 79 13 27 0;
#X connect 79 14 28 0;
#X connect 79 15 29 0;
#X connect 79 16 30 0;
#X connect 79 17 31 0;
#X connect 79 18 32 0;
#X connect 79 19 33 0;
#X connect 79 20 34 0;
#X connect 79 21 35 0;
#X connect 79 22 36 0;
#X connect 79 23 37 0;
#X connect 79 24 38 0;
#X connect 79 25 39 0;
#X connect 79 26 40 0;
#X connect 79 27 41 0;
#X connect 79 28 42 0;
#X connect 79 29 43 0;
#X connect 79 30 44 0;
#X connect 79 31 45 0;
#X connect 79 32 46 0;
#X connect 80 0 19 0;
#X connect 81 0 5 0;
#X connect 82 0 2 1;
#X connect 83 0 84 0;
#X connect 84 0 20 0;
#X connect 84 0 20 1;
#X connect 85 0 83 0;
